<?xml version="1.0" encoding="utf-8"?>
<!-- Generator: Adobe Illustrator 18.1.1, SVG Export Plug-In . SVG Version: 6.00 Build 0)  -->
<svg version="1.1" id="Layer_1" xmlns="http://www.w3.org/2000/svg" xmlns:xlink="http://www.w3.org/1999/xlink" x="0px" y="0px"
	 viewBox="0 0 70 70" enable-background="new 0 0 70 70" xml:space="preserve">
<g>
	<circle id="circle_3_" fill="#343434" cx="34.5" cy="35" r="8.3"/>
	<path id="turn_3_" fill="#343434" d="M34.5,0C18.2,0,4.5,11.2,0.6,26.2c0,0.1-0.1,0.3-0.1,0.4c0,0.9,0.7,1.7,1.7,1.7h14.1
		c0.7,0,1.2-0.4,1.5-1c0,0,0,0,0-0.1c2.9-6.3,9.3-10.6,16.6-10.6c10.1,0,18.3,8.2,18.3,18.3c0,10.1-8.2,18.3-18.3,18.3
		c-7.4,0-13.7-4.4-16.6-10.6c0,0,0-0.1,0-0.1c-0.3-0.6-0.8-1-1.5-1H2.2c-0.9,0-1.7,0.7-1.7,1.7c0,0.1,0,0.3,0.1,0.4
		C4.5,58.8,18.2,70,34.5,70c19.3,0,35-15.7,35-35S53.8,0,34.5,0z"/>
</g>
</svg>
